<svg xmlns="http://www.w3.org/2000/svg" width="96" height="96" viewBox="0 0 96 96" version="1.1"><path d="M 43.474 17.974 C 46.725 21.259, 49.560 23.773, 49.774 23.559 C 50.604 22.729, 47.835 19.014, 43.832 15.588 C 37.203 9.914, 36.979 11.410, 43.474 17.974 M 32.148 18.696 C 31.229 19.062, 32.653 21.113, 36.584 25.085 C 41.154 29.703, 42.661 30.696, 43.739 29.802 C 44.847 28.882, 44.113 27.664, 39.836 23.334 C 36.939 20.400, 34.328 18.036, 34.034 18.079 C 33.740 18.122, 32.891 18.400, 32.148 18.696 M 18.595 32.614 C 17.591 35.230, 28.149 45.731, 29.792 43.750 C 30.700 42.657, 29.733 41.184, 25.106 36.605 C 20.189 31.739, 19.170 31.115, 18.595 32.614 M 12 38.601 C 12 40.064, 18.771 47.807, 21.174 49.093 C 24.926 51.101, 23.950 49.388, 17.974 43.474 C 14.688 40.223, 12 38.030, 12 38.601 M 16.688 70.645 C 16.310 71.024, 16 71.933, 16 72.667 C 16 73.731, 19.846 74, 35.073 74 C 52.700 74, 54.121 73.867, 53.810 72.250 C 53.507 70.673, 51.694 70.473, 35.426 70.228 C 25.499 70.079, 17.067 70.266, 16.688 70.645" stroke="none" fill="#044c6d" fill-rule="evenodd"/><path d="M 33.667 12.667 C 31.918 14.416, 33.565 17.218, 39.992 23.422 C 47.018 30.205, 48.463 30.799, 50.415 27.704 C 51.286 26.322, 50.246 24.791, 44.513 19.013 C 38.086 12.536, 35.380 10.953, 33.667 12.667 M 24.730 24.768 L 19 30.558 25.446 36.946 C 30.771 42.224, 32.146 43.123, 33.357 42.119 C 34.352 41.293, 35.030 41.239, 35.470 41.951 C 35.826 42.528, 36.879 43.014, 37.809 43.031 C 38.739 43.048, 40.954 44.960, 42.731 47.281 C 44.507 49.601, 53.057 58.823, 61.731 67.773 C 75.794 82.286, 77.852 84.044, 80.750 84.023 C 83.739 84.002, 84.002 83.739, 84.028 80.750 C 84.053 77.850, 82.302 75.799, 67.778 61.709 C 58.825 53.024, 49.601 44.474, 47.281 42.709 C 44.960 40.944, 43.048 38.739, 43.031 37.809 C 43.014 36.879, 42.528 35.826, 41.951 35.470 C 41.240 35.030, 41.297 34.347, 42.128 33.346 C 43.144 32.122, 42.256 30.774, 36.906 25.424 L 30.459 18.978 24.730 24.768 M 12.667 33.667 C 10.957 35.376, 12.527 38.076, 18.916 44.416 C 23.684 49.148, 26.330 51.087, 27.438 50.662 C 31.193 49.221, 30.311 46.863, 23.416 39.916 C 17.076 33.527, 14.376 31.957, 12.667 33.667 M 12.685 74.648 C 12.308 75.025, 12 77.283, 12 79.667 L 12 84 35.055 84 L 58.110 84 57.805 79.250 L 57.500 74.500 35.435 74.231 C 23.300 74.084, 13.062 74.271, 12.685 74.648" stroke="none" fill="#337bc3" fill-rule="evenodd"/></svg>